<svg id="task-list-line-square" xmlns="http://www.w3.org/2000/svg" width="24" height="24" viewBox="0 0 24 24">
  <path id="Line_10" data-name="Line 10" d="M5.75.5h-6A.75.75,0,0,1-1-.25.75.75,0,0,1-.25-1h6a.75.75,0,0,1,.75.75A.75.75,0,0,1,5.75.5Z" transform="translate(11.25 12.25)" fill="#e26933"/>
  <path id="Line_11" data-name="Line 11" d="M5.75.5h-6A.75.75,0,0,1-1-.25.75.75,0,0,1-.25-1h6a.75.75,0,0,1,.75.75A.75.75,0,0,1,5.75.5Z" transform="translate(11.25 16.25)" fill="#e26933"/>
  <path id="Line_12" data-name="Line 12" d="M.75.5h-1A.75.75,0,0,1-1-.25.75.75,0,0,1-.25-1h1a.75.75,0,0,1,.75.75A.75.75,0,0,1,.75.5Z" transform="translate(7.25 12.25)" fill="#e26933"/>
  <path id="Line_13" data-name="Line 13" d="M.75.5h-1A.75.75,0,0,1-1-.25.75.75,0,0,1-.25-1h1a.75.75,0,0,1,.75.75A.75.75,0,0,1,.75.5Z" transform="translate(7.25 16.25)" fill="#e26933"/>
  <path id="Line_14" data-name="Line 14" d="M5.75.5h-6A.75.75,0,0,1-1-.25.75.75,0,0,1-.25-1h6a.75.75,0,0,1,.75.75A.75.75,0,0,1,5.75.5Z" transform="translate(11.25 8.25)" fill="#e26933"/>
  <path id="Rectangle_73" data-name="Rectangle 73" d="M3.5-1H14a4.505,4.505,0,0,1,4.5,4.5V14A4.505,4.505,0,0,1,14,18.5H3.5A4.505,4.505,0,0,1-1,14V3.5A4.505,4.505,0,0,1,3.5-1ZM14,17a3,3,0,0,0,3-3V3.5a3,3,0,0,0-3-3H3.5a3,3,0,0,0-3,3V14a3,3,0,0,0,3,3Z" transform="translate(3.25 3.25)" fill="#e26933"/>
  <path id="Line_15" data-name="Line 15" d="M.75.5h-1A.75.75,0,0,1-1-.25.75.75,0,0,1-.25-1h1a.75.75,0,0,1,.75.75A.75.75,0,0,1,.75.5Z" transform="translate(7.25 8.25)" fill="#e26933"/>
  <path id="Path_27" data-name="Path 27" d="M24,0H0V24H24Z" fill="none"/>
</svg>
