<svg id="anchor-triangle-select" xmlns="http://www.w3.org/2000/svg" width="24" height="24" viewBox="0 0 24 24">
  <path id="Path_134" data-name="Path 134" d="M0,0H24V24H0Z" fill="none"/>
  <path id="Path_135" data-name="Path 135" d="M9.333,6.667h0A2.667,2.667,0,0,1,12,4h0a2.667,2.667,0,0,1,2.667,2.667h0A2.667,2.667,0,0,1,12,9.334h0A2.668,2.668,0,0,1,9.333,6.667Z" fill="none" stroke="#01070d" stroke-linecap="round" stroke-linejoin="round" stroke-width="1.5"/>
  <path id="Path_136" data-name="Path 136" d="M2.869,17.333h0a2.667,2.667,0,0,1,2.667-2.667h0A2.667,2.667,0,0,1,8.2,17.333h0A2.668,2.668,0,0,1,5.536,20h0a2.667,2.667,0,0,1-2.667-2.667Z" fill="none" stroke="#01070d" stroke-linecap="round" stroke-linejoin="round" stroke-width="1.5"/>
  <path id="Path_137" data-name="Path 137" d="M15.8,17.333h0a2.667,2.667,0,0,1,2.667-2.667h0a2.667,2.667,0,0,1,2.667,2.667h0A2.667,2.667,0,0,1,18.465,20h0A2.666,2.666,0,0,1,15.8,17.333Z" fill="none" stroke="#01070d" stroke-linecap="round" stroke-linejoin="round" stroke-width="1.5"/>
  <path id="Path_138" data-name="Path 138" d="M15.89,16.67H8.11" fill="none" stroke="#01070d" stroke-linecap="round" stroke-linejoin="round" stroke-width="1.5"/>
  <path id="Path_139" data-name="Path 139" d="M13.44,8.91l3.87,6.03" fill="none" stroke="#01070d" stroke-linecap="round" stroke-linejoin="round" stroke-width="1.5"/>
  <path id="Path_140" data-name="Path 140" d="M6.69,14.94l3.87-6.03" fill="none" stroke="#01070d" stroke-linecap="round" stroke-linejoin="round" stroke-width="1.5"/>
</svg>
