<svg id="Money_Dollar" data-name="Money, Dollar" xmlns="http://www.w3.org/2000/svg" width="24" height="24" viewBox="0 0 24 24">
  <path id="Path_141" data-name="Path 141" d="M0,0H24V24H0Z" fill="none"/>
  <path id="Path_142" data-name="Path 142" d="M12,9.375V8.5" fill="none" stroke="#01070d" stroke-linecap="round" stroke-linejoin="round" stroke-width="1.5"/>
  <path id="Path_143" data-name="Path 143" d="M12,14.625V15.5" fill="none" stroke="#01070d" stroke-linecap="round" stroke-linejoin="round" stroke-width="1.5"/>
  <path id="Path_144" data-name="Path 144" d="M10.483,14a1.263,1.263,0,0,0,1.081.628h.959a1.229,1.229,0,0,0,.3-2.421l-1.64-.412a1.229,1.229,0,0,1,.3-2.421h.959a1.261,1.261,0,0,1,1.08.625" fill="none" stroke="#01070d" stroke-linecap="round" stroke-linejoin="round" stroke-width="1.5"/>
  <path id="Path_145" data-name="Path 145" d="M19.8,18.213h0a17.256,17.256,0,0,0-7.567.18l-.237.06a18.334,18.334,0,0,1-8.043.191L3.8,18.613a1,1,0,0,1-.8-.98V6.794a1,1,0,0,1,1.2-.981h0a17.256,17.256,0,0,0,7.567-.18l.473-.118a17.257,17.257,0,0,1,7.567-.18l.392.078A1,1,0,0,1,21,6.394V17.233A1,1,0,0,1,19.8,18.213Z" fill="none" stroke="#01070d" stroke-linecap="round" stroke-linejoin="round" stroke-width="1.5"/>
</svg>
