<svg id="Group_429" data-name="Group 429" xmlns="http://www.w3.org/2000/svg" width="24" height="24" viewBox="0 0 24 24">
  <path id="Path_146" data-name="Path 146" d="M0,0H24V24H0Z" fill="none"/>
  <path id="Path_147" data-name="Path 147" d="M15,15m-3,0a3,3,0,1,0,3-3,3,3,0,0,0-3,3" fill="none" stroke="#01070d" stroke-linecap="round" stroke-linejoin="round" stroke-width="1.5"/>
  <path id="Path_148" data-name="Path 148" d="M13,17.5V22l2-1.5L17,22V17.5" fill="none" stroke="#01070d" stroke-linecap="round" stroke-linejoin="round" stroke-width="1.5"/>
  <path id="Path_149" data-name="Path 149" d="M10,19H5a2,2,0,0,1-2-2V7A2.006,2.006,0,0,1,5,5H19a2,2,0,0,1,2,2V17a2,2,0,0,1-1,1.73" fill="none" stroke="#01070d" stroke-linecap="round" stroke-linejoin="round" stroke-width="1.5"/>
  <path id="Path_150" data-name="Path 150" d="M6,9H18" fill="none" stroke="#01070d" stroke-linecap="round" stroke-linejoin="round" stroke-width="1.5"/>
  <path id="Path_151" data-name="Path 151" d="M6,12H9" fill="none" stroke="#01070d" stroke-linecap="round" stroke-linejoin="round" stroke-width="1.5"/>
  <path id="Path_152" data-name="Path 152" d="M6,15H8" fill="none" stroke="#01070d" stroke-linecap="round" stroke-linejoin="round" stroke-width="1.5"/>
</svg>
