<svg id="book.2" xmlns="http://www.w3.org/2000/svg" width="24" height="24" viewBox="0 0 24 24">
  <path id="Path_159" data-name="Path 159" d="M12,5a6.365,6.365,0,0,0-8.188-.687A1.982,1.982,0,0,0,3,5.93V18.886a1,1,0,0,0,1.508.859A6.365,6.365,0,0,1,12,20.864V5a6.365,6.365,0,0,1,8.188-.687A1.982,1.982,0,0,1,21,5.93V18.886a1,1,0,0,1-1.508.859A6.365,6.365,0,0,0,12,20.864" fill="none" stroke="#01070d" stroke-linecap="round" stroke-linejoin="round" stroke-width="1.5"/>
  <path id="Path_160" data-name="Path 160" d="M0,0H24V24H0Z" fill="none"/>
</svg>
