<svg id="Group_251" data-name="Group 251" xmlns="http://www.w3.org/2000/svg" width="24" height="24" viewBox="0 0 24 24">
  <g id="warning.1">
    <path id="Path_33" data-name="Path 33" d="M0,0H24V24H0Z" fill="none"/>
    <g id="Group_43" data-name="Group 43" transform="translate(2.25 2.25)">
      <path id="Path_34" data-name="Path 34" d="M11.75,17a1,1,0,0,1-1-1,1,1,0,0,1,1-1,1,1,0,1,1,0,2Z" transform="translate(-2 -2)" fill="#01070d"/>
      <path id="Path_35" data-name="Path 35" d="M15.75,21.5H8.578a2.769,2.769,0,0,1-1.944-.806L2.806,16.866A2.769,2.769,0,0,1,2,14.922V8.578a2.769,2.769,0,0,1,.806-1.944L6.634,2.806A2.769,2.769,0,0,1,8.578,2h6.343a2.769,2.769,0,0,1,1.944.806l3.828,3.828A2.765,2.765,0,0,1,21.5,8.578v6.343a2.769,2.769,0,0,1-.806,1.944L16.28,21.28A.75.75,0,0,1,15.75,21.5ZM8.578,3.5a1.259,1.259,0,0,0-.884.366L3.866,7.694a1.259,1.259,0,0,0-.366.884v6.344a1.259,1.259,0,0,0,.366.884l3.828,3.828A1.258,1.258,0,0,0,8.578,20h6.861l4.194-4.2A1.259,1.259,0,0,0,20,14.921V8.578a1.256,1.256,0,0,0-.367-.883L15.8,3.866a1.259,1.259,0,0,0-.884-.366Z" transform="translate(-2 -2)" fill="#01070d"/>
      <path id="Path_36" data-name="Path 36" d="M11.75,13a.75.75,0,0,1-.75-.75v-5a.75.75,0,0,1,1.5,0v5A.75.75,0,0,1,11.75,13Z" transform="translate(-2 -2)" fill="#01070d"/>
    </g>
  </g>
</svg>
