<svg id="Group_12" data-name="Group 12" xmlns="http://www.w3.org/2000/svg" width="32" height="32" viewBox="0 0 32 32">
  <g id="task-list-line-square">
    <path id="Path_27" data-name="Path 27" d="M32,0H0V32H32Z" fill="none"/>
    <g id="Group_124" data-name="Group 124">
      <path id="Path_64_-_Outline" data-name="Path 64 - Outline" d="M42.177,207.689l-9.25-.41V187.7l9.019,5.539Zm-8.25-1.367,7.233.321L40.955,193.8l-7.028-4.316Z" transform="translate(-16 -179)" fill="#707070"/>
      <path id="Path_60" data-name="Path 60" d="M0,0H32V32H0Z" fill="none"/>
      <path id="Line_25" data-name="Line 25" d="M24,1H0A1,1,0,0,1-1,0,1,1,0,0,1,0-1H24a1,1,0,0,1,1,1A1,1,0,0,1,24,1Z" transform="translate(4 28)" fill="#0f4478"/>
      <path id="Path_61" data-name="Path 61" d="M15.667,28a1,1,0,0,1-1-1V4.618L6,8.951V27a1,1,0,0,1-2,0V8.333a1,1,0,0,1,.553-.894L15.219,2.106A1,1,0,0,1,16.667,3V27A1,1,0,0,1,15.667,28Z" transform="translate(1.667 1)" fill="#0f4478"/>
      <path id="Path_62" data-name="Path 62" d="M21,26.667a1,1,0,0,1-1-1v-12.8L12.445,7.832a1,1,0,1,1,1.109-1.664l8,5.333a1,1,0,0,1,.445.832V25.667A1,1,0,0,1,21,26.667Z" transform="translate(4.333 2.333)" fill="#0f4478"/>
      <g id="Group_241" data-name="Group 241">
        <path id="Line_26" data-name="Line 26" d="M0,1.013a1,1,0,0,1-1-1V0A1,1,0,0,1,0-1,1,1,0,0,1,1,0V.013A1,1,0,0,1,0,1.013Z" transform="translate(12 12)" fill="#0f4478"/>
        <path id="Line_27" data-name="Line 27" d="M0,1.013a1,1,0,0,1-1-1V0A1,1,0,0,1,0-1,1,1,0,0,1,1,0V.013A1,1,0,0,1,0,1.013Z" transform="translate(12 16)" fill="#0f4478"/>
        <path id="Line_28" data-name="Line 28" d="M0,1.013a1,1,0,0,1-1-1V0A1,1,0,0,1,0-1,1,1,0,0,1,1,0V.013A1,1,0,0,1,0,1.013Z" transform="translate(12 20)" fill="#0f4478"/>
        <path id="Line_29" data-name="Line 29" d="M0,1.013a1,1,0,0,1-1-1V0A1,1,0,0,1,0-1,1,1,0,0,1,1,0V.013A1,1,0,0,1,0,1.013Z" transform="translate(12 24)" fill="#0f4478"/>
      </g>
    </g>
  </g>
</svg>
