<svg id="Group_14" data-name="Group 14" xmlns="http://www.w3.org/2000/svg" width="32" height="32" viewBox="0 0 32 32">
  <g id="favorite-bookmark-checkmark">
    <g id="Group_38" data-name="Group 38" transform="translate(5.333 4)">
      <path id="Path_19" data-name="Path 19" d="M14.666,28a3.673,3.673,0,0,1-1.781-.462l-8-4.444A3.671,3.671,0,0,1,3,19.889V5.667A3.671,3.671,0,0,1,6.667,2h16a3.671,3.671,0,0,1,3.667,3.667V19.889a3.666,3.666,0,0,1-1.887,3.205l-8,4.444A3.673,3.673,0,0,1,14.666,28Zm-8-24A1.669,1.669,0,0,0,5,5.667V19.889a1.669,1.669,0,0,0,.857,1.457l8,4.444a1.665,1.665,0,0,0,1.619,0l8-4.444a1.665,1.665,0,0,0,.858-1.456V5.667A1.669,1.669,0,0,0,22.667,4Z" transform="translate(-4 -3)" fill="#0f4478"/>
      <path id="Path_20" data-name="Path 20" d="M12.177,14.667a1,1,0,0,1-.707-.293L8.626,11.53a1,1,0,0,1,1.414-1.414l2.137,2.137,3.56-3.56a1,1,0,0,1,1.414,1.414l-4.267,4.267A1,1,0,0,1,12.177,14.667Z" transform="translate(-2.222 -0.867)" fill="#0f4478"/>
    </g>
    <rect id="Rectangle_64" data-name="Rectangle 64" width="32" height="32" fill="none"/>
  </g>
</svg>
