<svg id="Group_17" data-name="Group 17" xmlns="http://www.w3.org/2000/svg" width="32" height="32" viewBox="0 0 32 32">
  <g id="task-list-document-text">
    <path id="Path_28" data-name="Path 28" d="M0,0H32V32H0Z" fill="none"/>
    <path id="Path_29" data-name="Path 29" d="M10.775,1h5.119a2.324,2.324,0,0,1,1.822.875l1.733,2.168a1,1,0,0,1,.219.624V6a2.336,2.336,0,0,1-2.333,2.333h-8A2.336,2.336,0,0,1,7,6V4.667a1,1,0,0,1,.219-.625L8.952,1.875A2.324,2.324,0,0,1,10.775,1Zm6.892,4.017L16.154,3.124A.332.332,0,0,0,15.893,3H10.775a.333.333,0,0,0-.261.125L9,5.017V6a.334.334,0,0,0,.333.333h8A.334.334,0,0,0,17.667,6Z" transform="translate(2.667 0.667)" fill="#0f4478"/>
    <path id="Path_30" data-name="Path 30" d="M22.667,27.667h-16A3.671,3.671,0,0,1,3,24V6.667A3.671,3.671,0,0,1,6.667,3H9.333a1,1,0,1,1,0,2H6.667A1.669,1.669,0,0,0,5,6.667V24a1.669,1.669,0,0,0,1.667,1.667h16A1.669,1.669,0,0,0,24.333,24V6.667A1.669,1.669,0,0,0,22.667,5H20a1,1,0,1,1,0-2h2.667a3.671,3.671,0,0,1,3.667,3.667V24A3.671,3.671,0,0,1,22.667,27.667Z" transform="translate(1.333 1.333)" fill="#0f4478"/>
    <g id="Group_238" data-name="Group 238">
      <path id="Path_31" data-name="Path 31" d="M18.667,12H8a1,1,0,0,1,0-2H18.667a1,1,0,0,1,0,2Z" transform="translate(2.667 3.667)" fill="#0f4478"/>
      <path id="Path_32" data-name="Path 32" d="M18.667,17H8a1,1,0,0,1,0-2H18.667a1,1,0,0,1,0,2Z" transform="translate(2.667 5.333)" fill="#0f4478"/>
    </g>
  </g>
</svg>
