<svg id="Group_129" data-name="Group 129" xmlns="http://www.w3.org/2000/svg" width="32" height="32" viewBox="0 0 32 32">
  <g id="warning.1">
    <path id="Path_33" data-name="Path 33" d="M0,0H32V32H0Z" fill="none"/>
    <g id="Group_43" data-name="Group 43" transform="translate(4 4)">
      <path id="Path_35" data-name="Path 35" d="M20.333,28H10.771a3.692,3.692,0,0,1-2.592-1.074l-5.1-5.1A3.692,3.692,0,0,1,2,19.229V10.771A3.692,3.692,0,0,1,3.074,8.178l5.1-5.1A3.692,3.692,0,0,1,10.771,2h8.457A3.692,3.692,0,0,1,21.82,3.074l5.1,5.1A3.687,3.687,0,0,1,28,10.771v8.457a3.692,3.692,0,0,1-1.074,2.592l-5.885,5.887A1,1,0,0,1,20.333,28ZM10.771,4a1.678,1.678,0,0,0-1.178.488l-5.1,5.1A1.678,1.678,0,0,0,4,10.771v8.459a1.678,1.678,0,0,0,.488,1.178l5.1,5.1A1.678,1.678,0,0,0,10.771,26h9.148l5.592-5.594A1.678,1.678,0,0,0,26,19.228V10.771a1.674,1.674,0,0,0-.489-1.177l-5.1-5.1A1.678,1.678,0,0,0,19.228,4Z" transform="translate(-3 -3)" fill="#0f4478"/>
      <g id="Group_236" data-name="Group 236">
        <path id="Path_34" data-name="Path 34" d="M12.083,17.667a1.335,1.335,0,0,1-1.333-1.332A1.331,1.331,0,0,1,12.082,15a1.333,1.333,0,1,1,0,2.667Z" transform="translate(-0.083 1.333)" fill="#0f4478"/>
        <path id="Path_36" data-name="Path 36" d="M12,15.167a1,1,0,0,1-1-1V7.5a1,1,0,0,1,2,0v6.667A1,1,0,0,1,12,15.167Z" transform="translate(0 -1.5)" fill="#0f4478"/>
      </g>
    </g>
  </g>
</svg>
