<svg id="Group_129" data-name="Group 129" xmlns="http://www.w3.org/2000/svg" width="32" height="32" viewBox="0 0 32 32">
  <g id="warning.1">
    <path id="Path_33" data-name="Path 33" d="M0,0H32V32H0Z" fill="none"/>
    <g id="Group_43" data-name="Group 43" transform="translate(4 4)">
      <path id="Path_34" data-name="Path 34" d="M12.082,16a.333.333,0,1,0,.335.333A.331.331,0,0,0,12.082,16" transform="translate(-0.083 1.333)" fill="none" stroke="#818a93" stroke-linecap="round" stroke-linejoin="round" stroke-width="2"/>
      <path id="Path_35" data-name="Path 35" d="M8.885,26.219l-5.1-5.1A2.668,2.668,0,0,1,3,19.229V10.771a2.668,2.668,0,0,1,.781-1.885l5.1-5.1A2.668,2.668,0,0,1,10.771,3h8.457a2.668,2.668,0,0,1,1.885.781l5.1,5.1A2.663,2.663,0,0,1,27,10.771v8.457a2.668,2.668,0,0,1-.781,1.885L20.333,27H10.771a2.668,2.668,0,0,1-1.885-.781Z" transform="translate(-3 -3)" fill="none" stroke="#818a93" stroke-linecap="round" stroke-linejoin="round" stroke-width="2"/>
      <path id="Path_36" data-name="Path 36" d="M12,14.167V7.5" transform="translate(0 -1.5)" fill="none" stroke="#818a93" stroke-linecap="round" stroke-linejoin="round" stroke-width="2"/>
    </g>
  </g>
</svg>
