<svg id="setting-style-2" xmlns="http://www.w3.org/2000/svg" width="32" height="32" viewBox="0 0 32 32">
  <path id="Path_25" data-name="Path 25" d="M5.523,14.007,3.768,12.029a1.333,1.333,0,0,1-.157-1.551L5.316,7.523a1.333,1.333,0,0,1,1.422-.64l2.591.53,1.72-.993.836-2.509A1.333,1.333,0,0,1,13.15,3h3.411a1.333,1.333,0,0,1,1.265.912l.836,2.509,1.72.993,2.591-.53a1.333,1.333,0,0,1,1.422.64L26.1,10.477a1.333,1.333,0,0,1-.157,1.551l-1.755,1.979v1.986l1.755,1.979a1.333,1.333,0,0,1,.157,1.551L24.4,22.477a1.333,1.333,0,0,1-1.422.64l-2.591-.53-1.719.993-.836,2.509A1.333,1.333,0,0,1,16.562,27H13.15a1.333,1.333,0,0,1-1.265-.912l-.836-2.509L9.33,22.587l-2.591.53a1.333,1.333,0,0,1-1.422-.64L3.611,19.523a1.333,1.333,0,0,1,.157-1.551l1.755-1.979Z" transform="translate(1.144 1)" fill="none" stroke="#818a93" stroke-linecap="round" stroke-linejoin="round" stroke-width="2"/>
  <circle id="Ellipse_2" data-name="Ellipse 2" cx="4" cy="4" r="4" transform="translate(12 12)" fill="none" stroke="#818a93" stroke-linecap="round" stroke-linejoin="round" stroke-width="2"/>
  <path id="Path_26" data-name="Path 26" d="M0,0H32V32H0" fill="none"/>
</svg>
